<svg aria-hidden="true" style="position: absolute; width: 0; height: 0; overflow: hidden;" version="1.1" xmlns="http://www.w3.org/2000/svg" xmlns:xlink="http://www.w3.org/1999/xlink">
<defs>
	<symbol id="menu" viewBox="0 0 32 32">
		<path fill="#1a1a1a" style="fill: var(--color1, #1a1a1a)" d="M11.040 9.248c-0.037-0.038-0.058-0.091-0.057-0.151l0.031-2.404c0.009-0.112 0.101-0.201 0.213-0.206l14.028-0.507c0.038-0.007 0.082 0.009 0.119 0.032l3.196 1.991c0.059 0.031 0.103 0.106 0.102 0.181s-0.040 0.142-0.108 0.178l-3.258 1.887c-0.038 0.022-0.075 0.029-0.12 0.028l-14.012-0.968c-0.052-0.008-0.097-0.024-0.134-0.062zM11.437 6.902l-0.032 2.007 13.743 0.934 2.895-1.668-2.84-1.776-13.766 0.504z"></path>
		<path fill="#1a1a1a" style="fill: var(--color1, #1a1a1a)" d="M9.802 10.786c-0.169-0.175-0.263-0.409-0.259-0.648l0.073-4.522c-0.003-0.247 0.098-0.478 0.28-0.655 0.175-0.169 0.409-0.263 0.656-0.252l0.711 0.004c0.112 0.009 0.208 0.108 0.206 0.213l-0.096 5.945c-0.002 0.12-0.101 0.216-0.213 0.206l-0.711-0.004c-0.247-0.011-0.47-0.105-0.647-0.288zM11.039 5.136l-0.494-0.008c-0.135-0.002-0.263 0.048-0.354 0.137-0.099 0.096-0.153 0.222-0.156 0.357l-0.073 4.522c0.003 0.262 0.232 0.498 0.494 0.51l0.502 0.001 0.082-5.518z"></path>
		<path fill="#1a1a1a" style="fill: var(--color1, #1a1a1a)" d="M6.334 8.542l-0.037-0.038c-0.036-0.068-0.035-0.143-0.004-0.202 0.077-0.148 0.11-0.313 0.12-0.485 0.003-0.165-0.032-0.323-0.105-0.474-0.029-0.060-0.028-0.135 0.011-0.202 0.031-0.059 0.099-0.096 0.166-0.102l3.305-0.134c0.060 0.001 0.12 0.017 0.156 0.055 0.044 0.046 0.066 0.098 0.065 0.158l-0.025 1.527c-0.001 0.060-0.024 0.112-0.062 0.149-0.053 0.037-0.106 0.058-0.166 0.057l-3.291-0.248c-0.052-0.008-0.097-0.024-0.134-0.062zM6.793 7.448c0.028 0.12 0.048 0.248 0.046 0.383-0.010 0.127-0.026 0.247-0.051 0.374l2.783 0.21 0.017-1.078-2.795 0.112z"></path>
		<path fill="#1a1a1a" style="fill: var(--color1, #1a1a1a)" d="M4.246 8.852c-0.28-0.289-0.424-0.666-0.417-1.070 0.006-0.831 0.698-1.502 1.529-1.481 0.404 0.007 0.776 0.162 1.056 0.451s0.431 0.674 0.424 1.078c-0.014 0.397-0.177 0.776-0.459 1.049-0.289 0.28-0.674 0.431-1.071 0.432-0.404-0.007-0.784-0.17-1.064-0.459zM6.11 7.048c-0.199-0.205-0.474-0.322-0.759-0.327-0.599-0.010-1.094 0.469-1.103 1.068-0.005 0.285 0.103 0.563 0.302 0.769s0.474 0.322 0.759 0.327c0.3 0.005 0.563-0.103 0.776-0.31 0.205-0.199 0.322-0.459 0.327-0.759 0.005-0.285-0.103-0.563-0.302-0.769zM11.060 8.049c-0.037-0.038-0.066-0.098-0.058-0.151 0.002-0.12 0.093-0.208 0.213-0.206l8.828 0.135c0.112 0.009 0.201 0.101 0.206 0.213-0.002 0.12-0.101 0.216-0.221 0.214l-8.82-0.143c-0.060-0.001-0.112-0.024-0.149-0.062zM21.115 8.204c-0.037-0.038-0.058-0.091-0.058-0.151-0.006-0.112 0.093-0.208 0.213-0.206l1.46 0.031c0.112-0.006 0.208 0.093 0.206 0.213 0.006 0.112-0.093 0.208-0.213 0.206l-1.46-0.031c-0.053 0.007-0.112-0.024-0.149-0.062z"></path>
		<path fill="#dbd9db" style="fill: var(--color2, #dbd9db)" d="M22.938 8.091c0.006 0.112-0.093 0.208-0.213 0.206l-1.46-0.031c-0.053 0.007-0.112-0.024-0.149-0.062s-0.058-0.091-0.057-0.151c-0.006-0.112 0.093-0.208 0.213-0.206l1.46 0.031c0.112-0.006 0.208 0.093 0.206 0.213zM11.406 8.909l13.743 0.934 2.895-1.668-2.84-1.776-13.766 0.504-0.013 0.794 8.618 0.132c0.112 0.009 0.201 0.101 0.206 0.213-0.002 0.12-0.101 0.216-0.221 0.214l-8.611-0.139-0.013 0.794z"></path>
		<path fill="#fdc73e" style="fill: var(--color3, #fdc73e)" d="M10.958 10.653l0.018-1.55 0.008-0.007 0.019-1.198-0.007-0.008 0.019-1.198 0.008-0.007 0.018-1.55-0.494-0.008c-0.135-0.002-0.263 0.048-0.354 0.137-0.099 0.096-0.153 0.222-0.156 0.357l-0.073 4.522c0.003 0.262 0.232 0.498 0.494 0.51l0.502 0.001zM6.285 8.308c0.046-0.089 0.085-0.186 0.109-0.283 0.009-0.067 0.017-0.135 0.018-0.209 0.002-0.105-0.011-0.225-0.047-0.338-0.014-0.045-0.036-0.098-0.058-0.136l-0.007-0.008c-0.043-0.106-0.109-0.204-0.19-0.288-0.199-0.205-0.474-0.322-0.759-0.327-0.599-0.010-1.094 0.469-1.103 1.068-0.005 0.285 0.103 0.563 0.302 0.769s0.474 0.322 0.759 0.327c0.3 0.005 0.563-0.103 0.776-0.31 0.076-0.074 0.145-0.17 0.199-0.266z"></path>
		<path fill="#a86b39" style="fill: var(--color4, #a86b39)" d="M6.789 8.204l2.783 0.21 0.017-1.078-2.795 0.112c0.028 0.12 0.048 0.248 0.046 0.383-0.010 0.127-0.026 0.247-0.051 0.374z"></path>
		<path fill="#1a1a1a" style="fill: var(--color1, #1a1a1a)" d="M21.105 17.248c0.037-0.038 0.058-0.091 0.058-0.151l-0.031-2.404c-0.009-0.112-0.101-0.201-0.213-0.206l-14.028-0.507c-0.038-0.007-0.082 0.009-0.119 0.032l-3.196 1.991c-0.059 0.031-0.103 0.106-0.102 0.181s0.040 0.142 0.108 0.178l3.258 1.887c0.038 0.022 0.075 0.029 0.12 0.028l14.012-0.968c0.052-0.008 0.097-0.024 0.134-0.062zM20.707 14.902l0.032 2.007-13.743 0.934-2.895-1.668 2.84-1.776 13.766 0.504z"></path>
		<path fill="#1a1a1a" style="fill: var(--color1, #1a1a1a)" d="M22.343 18.786c0.169-0.175 0.263-0.409 0.259-0.648l-0.073-4.522c0.004-0.247-0.098-0.478-0.28-0.654-0.175-0.169-0.409-0.263-0.656-0.252l-0.711 0.004c-0.112 0.009-0.208 0.108-0.206 0.213l0.096 5.945c0.002 0.12 0.101 0.216 0.213 0.206l0.711-0.004c0.247-0.011 0.47-0.105 0.647-0.288zM21.105 13.136l0.494-0.008c0.135-0.002 0.263 0.048 0.354 0.137 0.099 0.096 0.153 0.222 0.156 0.357l0.073 4.522c-0.003 0.262-0.232 0.498-0.494 0.51l-0.502 0.001-0.082-5.518z"></path>
		<path fill="#1a1a1a" style="fill: var(--color1, #1a1a1a)" d="M25.811 16.542l0.037-0.038c0.036-0.068 0.035-0.143 0.004-0.202-0.077-0.148-0.11-0.313-0.12-0.485-0.003-0.165 0.032-0.323 0.105-0.474 0.029-0.060 0.028-0.135-0.011-0.202-0.031-0.059-0.099-0.096-0.166-0.102l-3.305-0.134c-0.060 0.001-0.12 0.017-0.156 0.055-0.044 0.046-0.066 0.098-0.065 0.158l0.025 1.527c0.001 0.060 0.024 0.112 0.062 0.149 0.053 0.037 0.106 0.058 0.166 0.057l3.291-0.248c0.052-0.008 0.097-0.024 0.134-0.062zM25.351 15.448c-0.028 0.12-0.048 0.248-0.046 0.383 0.010 0.127 0.026 0.247 0.051 0.374l-2.783 0.21-0.017-1.078 2.795 0.112z"></path>
		<path fill="#1a1a1a" style="fill: var(--color1, #1a1a1a)" d="M27.898 16.852c0.28-0.289 0.424-0.666 0.417-1.070-0.006-0.831-0.698-1.502-1.529-1.481-0.404 0.006-0.776 0.162-1.056 0.451s-0.431 0.674-0.424 1.078c0.014 0.397 0.177 0.776 0.459 1.049 0.289 0.28 0.674 0.431 1.070 0.432 0.404-0.007 0.784-0.17 1.064-0.459zM26.034 15.048c0.199-0.205 0.474-0.322 0.759-0.327 0.599-0.010 1.094 0.469 1.103 1.068 0.005 0.285-0.103 0.563-0.302 0.769s-0.474 0.322-0.759 0.327c-0.3 0.005-0.563-0.103-0.776-0.31-0.205-0.199-0.322-0.459-0.327-0.759-0.005-0.284 0.103-0.563 0.302-0.769zM21.085 16.049c0.037-0.038 0.066-0.098 0.057-0.151-0.002-0.12-0.093-0.208-0.213-0.206l-8.828 0.135c-0.112 0.009-0.201 0.101-0.206 0.213 0.002 0.12 0.101 0.216 0.221 0.214l8.82-0.143c0.060-0.001 0.112-0.024 0.149-0.062zM11.029 16.204c0.037-0.038 0.058-0.091 0.057-0.151 0.006-0.112-0.093-0.208-0.213-0.206l-1.46 0.031c-0.112-0.006-0.208 0.093-0.206 0.213-0.006 0.112 0.093 0.208 0.213 0.206l1.46-0.031c0.053 0.007 0.112-0.024 0.149-0.062z"></path>
		<path fill="#dbd9db" style="fill: var(--color2, #dbd9db)" d="M9.207 16.091c-0.006 0.112 0.093 0.208 0.213 0.206l1.46-0.031c0.052 0.007 0.112-0.024 0.149-0.062s0.058-0.091 0.058-0.151c0.006-0.112-0.093-0.208-0.213-0.206l-1.46 0.031c-0.112-0.006-0.208 0.093-0.206 0.213zM20.739 16.909l-13.743 0.934-2.895-1.668 2.84-1.776 13.766 0.504 0.013 0.794-8.618 0.132c-0.112 0.009-0.201 0.101-0.206 0.213 0.002 0.12 0.101 0.216 0.221 0.214l8.611-0.139 0.013 0.794z"></path>
		<path fill="#fdc73e" style="fill: var(--color3, #fdc73e)" d="M21.187 18.653l-0.018-1.55-0.008-0.007-0.019-1.198 0.007-0.008-0.019-1.198-0.008-0.007-0.018-1.55 0.494-0.008c0.135-0.002 0.263 0.048 0.354 0.137 0.099 0.096 0.153 0.222 0.156 0.357l0.073 4.522c-0.003 0.262-0.232 0.498-0.494 0.51l-0.502 0.001zM25.86 16.308c-0.046-0.089-0.085-0.186-0.109-0.283-0.009-0.067-0.017-0.135-0.018-0.209-0.002-0.105 0.011-0.225 0.047-0.338 0.014-0.045 0.036-0.098 0.058-0.136l0.007-0.008c0.043-0.106 0.109-0.204 0.19-0.288 0.199-0.205 0.474-0.322 0.759-0.327 0.599-0.010 1.094 0.469 1.103 1.068 0.005 0.285-0.103 0.563-0.302 0.769s-0.474 0.322-0.759 0.327c-0.3 0.005-0.563-0.103-0.776-0.31-0.076-0.074-0.145-0.17-0.199-0.266z"></path>
		<path fill="#a86b39" style="fill: var(--color4, #a86b39)" d="M25.356 16.204l-2.783 0.21-0.017-1.078 2.795 0.112c-0.028 0.12-0.048 0.248-0.046 0.383 0.010 0.127 0.026 0.247 0.051 0.374z"></path>
		<path fill="#1a1a1a" style="fill: var(--color1, #1a1a1a)" d="M11.226 25.248c-0.037-0.038-0.058-0.091-0.057-0.151l0.031-2.404c0.009-0.112 0.101-0.201 0.213-0.206l14.028-0.507c0.038-0.007 0.082 0.009 0.119 0.032l3.196 1.991c0.059 0.031 0.103 0.106 0.102 0.181s-0.040 0.142-0.108 0.178l-3.258 1.887c-0.038 0.022-0.075 0.029-0.12 0.028l-14.012-0.968c-0.052-0.008-0.097-0.024-0.134-0.062zM11.623 22.902l-0.032 2.007 13.743 0.934 2.895-1.668-2.84-1.776-13.766 0.504z"></path>
		<path fill="#1a1a1a" style="fill: var(--color1, #1a1a1a)" d="M9.988 26.786c-0.169-0.175-0.263-0.409-0.259-0.648l0.073-4.522c-0.004-0.247 0.098-0.478 0.28-0.654 0.175-0.169 0.409-0.263 0.656-0.252l0.711 0.004c0.112 0.009 0.208 0.108 0.206 0.213l-0.096 5.945c-0.002 0.12-0.101 0.216-0.213 0.206l-0.711-0.004c-0.247-0.011-0.47-0.105-0.647-0.288zM11.225 21.136l-0.494-0.008c-0.135-0.002-0.263 0.048-0.354 0.137-0.099 0.096-0.153 0.222-0.156 0.357l-0.073 4.522c0.003 0.262 0.232 0.498 0.494 0.51l0.502 0.001 0.082-5.518z"></path>
		<path fill="#1a1a1a" style="fill: var(--color1, #1a1a1a)" d="M6.519 24.542l-0.037-0.038c-0.036-0.068-0.035-0.143-0.004-0.202 0.077-0.148 0.11-0.313 0.12-0.485 0.003-0.165-0.032-0.323-0.105-0.474-0.029-0.060-0.028-0.135 0.011-0.202 0.031-0.059 0.099-0.096 0.166-0.102l3.305-0.134c0.060 0.001 0.12 0.017 0.156 0.055 0.044 0.046 0.066 0.098 0.065 0.158l-0.025 1.527c-0.001 0.060-0.024 0.112-0.062 0.149-0.053 0.037-0.106 0.058-0.166 0.057l-3.291-0.248c-0.052-0.008-0.097-0.024-0.134-0.062zM6.979 23.448c0.028 0.12 0.048 0.248 0.046 0.383-0.010 0.127-0.026 0.247-0.051 0.374l2.783 0.21 0.017-1.078-2.795 0.112z"></path>
		<path fill="#1a1a1a" style="fill: var(--color1, #1a1a1a)" d="M4.432 24.852c-0.28-0.289-0.424-0.666-0.417-1.070 0.006-0.831 0.698-1.502 1.529-1.481 0.404 0.006 0.776 0.162 1.056 0.451s0.431 0.674 0.424 1.078c-0.014 0.397-0.177 0.776-0.459 1.049-0.289 0.28-0.674 0.431-1.071 0.432-0.404-0.007-0.784-0.17-1.064-0.459zM6.296 23.048c-0.199-0.205-0.474-0.322-0.759-0.327-0.599-0.010-1.094 0.469-1.103 1.068-0.005 0.285 0.103 0.563 0.302 0.769s0.474 0.322 0.759 0.327c0.3 0.005 0.563-0.103 0.776-0.31 0.205-0.199 0.322-0.459 0.327-0.759 0.005-0.284-0.103-0.563-0.302-0.769zM11.245 24.049c-0.037-0.038-0.066-0.098-0.057-0.151 0.002-0.12 0.093-0.208 0.213-0.206l8.828 0.135c0.112 0.009 0.201 0.101 0.206 0.213-0.002 0.12-0.101 0.216-0.221 0.214l-8.82-0.143c-0.060-0.001-0.112-0.024-0.149-0.062zM21.301 24.204c-0.037-0.038-0.058-0.091-0.057-0.151-0.006-0.112 0.093-0.208 0.213-0.206l1.46 0.031c0.112-0.006 0.208 0.093 0.206 0.213 0.006 0.112-0.093 0.208-0.213 0.206l-1.46-0.031c-0.053 0.007-0.112-0.024-0.149-0.062z"></path>
		<path fill="#dbd9db" style="fill: var(--color2, #dbd9db)" d="M23.124 24.091c0.006 0.112-0.093 0.208-0.213 0.206l-1.46-0.031c-0.052 0.007-0.112-0.024-0.149-0.062s-0.058-0.091-0.057-0.151c-0.006-0.112 0.093-0.208 0.213-0.206l1.46 0.031c0.112-0.006 0.208 0.093 0.206 0.213zM11.592 24.909l13.743 0.934 2.895-1.668-2.84-1.776-13.766 0.504-0.013 0.794 8.618 0.132c0.112 0.009 0.201 0.101 0.206 0.213-0.002 0.12-0.101 0.216-0.221 0.214l-8.611-0.139-0.013 0.794z"></path>
		<path fill="#fdc73e" style="fill: var(--color3, #fdc73e)" d="M11.144 26.653l0.018-1.55 0.008-0.007 0.019-1.198-0.007-0.008 0.019-1.198 0.008-0.007 0.018-1.55-0.494-0.008c-0.135-0.002-0.263 0.048-0.354 0.137-0.099 0.096-0.153 0.222-0.156 0.357l-0.073 4.522c0.003 0.262 0.232 0.498 0.494 0.51l0.502 0.001zM6.471 24.308c0.046-0.089 0.085-0.186 0.109-0.283 0.009-0.067 0.017-0.135 0.018-0.209 0.002-0.105-0.011-0.225-0.047-0.338-0.014-0.045-0.036-0.098-0.058-0.136l-0.007-0.008c-0.043-0.106-0.109-0.204-0.19-0.288-0.199-0.205-0.474-0.322-0.759-0.327-0.599-0.010-1.094 0.469-1.103 1.068-0.005 0.285 0.103 0.563 0.302 0.769s0.474 0.322 0.759 0.327c0.3 0.005 0.563-0.103 0.776-0.31 0.076-0.074 0.145-0.17 0.199-0.266z"></path>
		<path fill="#a86b39" style="fill: var(--color4, #a86b39)" d="M6.975 24.204l2.783 0.21 0.017-1.078-2.795 0.112c0.028 0.12 0.048 0.248 0.046 0.383-0.010 0.127-0.026 0.247-0.051 0.374z"></path>
	</symbol>
	<symbol id="close" viewBox="0 0 32 32">
		<path fill="#1a1a1a" style="fill: var(--color1, #1a1a1a)" d="M21.304 18.629c0 0.063-0.025 0.127-0.075 0.177l-1.996 2.039c-0.1 0.089-0.25 0.089-0.349 0l-12.288-11.236c-0.037-0.025-0.062-0.076-0.075-0.127l-1.073-4.37c-0.025-0.076 0-0.177 0.062-0.241s0.15-0.089 0.237-0.063l4.304 1.089c0.050 0.013 0.087 0.038 0.125 0.076l11.065 12.49c0.037 0.051 0.062 0.101 0.062 0.165zM19.046 20.314l1.672-1.697-10.866-12.237-3.817-0.975 0.948 3.889 12.063 11.021z"></path>
		<path fill="#1a1a1a" style="fill: var(--color1, #1a1a1a)" d="M23.612 18.338c0 0.291-0.112 0.57-0.312 0.773l-3.767 3.826c-0.2 0.215-0.474 0.329-0.773 0.329-0.287 0-0.561-0.114-0.761-0.329l-0.599-0.595c-0.087-0.101-0.087-0.266 0-0.355l4.952-5.029c0.1-0.101 0.262-0.101 0.349 0l0.599 0.595c0.2 0.215 0.312 0.481 0.312 0.785zM17.936 22.164l0.412 0.418c0.112 0.114 0.262 0.177 0.412 0.177 0.162 0 0.312-0.063 0.424-0.177l3.767-3.826c0.212-0.228 0.212-0.621 0-0.849l-0.424-0.418-4.591 4.674z"></path>
		<path fill="#1a1a1a" style="fill: var(--color1, #1a1a1a)" d="M24.708 23.151v0.063c-0.025 0.089-0.087 0.152-0.162 0.177-0.187 0.063-0.349 0.177-0.499 0.317-0.137 0.139-0.237 0.304-0.299 0.494-0.025 0.076-0.087 0.139-0.175 0.165-0.075 0.025-0.162 0-0.225-0.051l-2.907-2.635c-0.050-0.051-0.087-0.114-0.087-0.177 0-0.076 0.025-0.139 0.075-0.19l1.272-1.292c0.050-0.051 0.112-0.076 0.175-0.076 0.075 0.013 0.137 0.038 0.187 0.089l2.582 2.952c0.037 0.051 0.062 0.101 0.062 0.165zM23.423 23.708c0.075-0.127 0.162-0.253 0.274-0.367 0.112-0.101 0.225-0.19 0.349-0.279l-2.183-2.495-0.898 0.912 2.458 2.229z"></path>
		<path fill="#1a1a1a" style="fill: var(--color1, #1a1a1a)" d="M26.729 24.622c0 0.481-0.187 0.925-0.524 1.267-0.686 0.709-1.821 0.709-2.507 0-0.337-0.342-0.524-0.785-0.524-1.267s0.187-0.937 0.524-1.279c0.337-0.329 0.786-0.519 1.248-0.519 0.474 0 0.923 0.19 1.26 0.519 0.337 0.342 0.524 0.798 0.524 1.279zM23.673 24.622c0 0.342 0.137 0.671 0.374 0.912 0.499 0.507 1.31 0.507 1.809 0 0.237-0.241 0.374-0.57 0.374-0.912s-0.137-0.671-0.374-0.912c-0.25-0.253-0.561-0.38-0.911-0.38-0.337 0-0.649 0.127-0.898 0.38-0.237 0.241-0.374 0.57-0.374 0.912zM20.305 19.643c0 0.063-0.025 0.139-0.075 0.177-0.1 0.101-0.249 0.101-0.349 0l-7.36-7.461c-0.087-0.101-0.087-0.253 0-0.355 0.1-0.101 0.262-0.101 0.362 0l7.348 7.461c0.050 0.051 0.075 0.114 0.075 0.177zM11.922 11.143c0 0.063-0.025 0.127-0.075 0.177-0.087 0.101-0.25 0.101-0.349 0l-1.21-1.241c-0.1-0.089-0.1-0.253 0-0.355 0.087-0.101 0.249-0.101 0.349 0l1.21 1.241c0.050 0.038 0.075 0.114 0.075 0.177z"></path>
		<path fill="#dbd9db" style="fill: var(--color2, #dbd9db)" d="M10.288 9.724c0.087-0.101 0.25-0.101 0.349 0l1.21 1.241c0.050 0.038 0.075 0.114 0.075 0.177s-0.025 0.127-0.075 0.177c-0.087 0.101-0.25 0.101-0.349 0l-1.21-1.241c-0.1-0.089-0.1-0.253 0-0.355zM20.717 18.617l-10.866-12.237-3.817-0.975 0.948 3.889 12.063 11.021 0.661-0.671-7.185-7.284c-0.087-0.101-0.087-0.253 0-0.355 0.1-0.101 0.262-0.101 0.362 0l7.173 7.284 0.661-0.671z"></path>
		<path fill="#fdc73e" style="fill: var(--color3, #fdc73e)" d="M22.525 17.492l-1.285 1.317h-0.012l-0.998 1.013v0.013l-0.998 1.013h-0.012l-1.285 1.317 0.412 0.418c0.112 0.114 0.262 0.177 0.412 0.177 0.162 0 0.312-0.063 0.424-0.177l3.767-3.826c0.212-0.228 0.212-0.621 0-0.849l-0.424-0.418zM24.558 23.395c-0.112 0.038-0.225 0.089-0.324 0.152-0.062 0.051-0.125 0.101-0.187 0.165-0.087 0.089-0.175 0.203-0.237 0.329-0.025 0.051-0.050 0.114-0.062 0.165v0.013c-0.050 0.127-0.075 0.266-0.075 0.405 0 0.342 0.137 0.671 0.374 0.912 0.499 0.507 1.31 0.507 1.809 0 0.237-0.241 0.374-0.57 0.374-0.912s-0.137-0.671-0.374-0.912c-0.25-0.253-0.561-0.38-0.911-0.38-0.125 0-0.262 0.025-0.387 0.063z"></path>
		<path fill="#a86b39" style="fill: var(--color4, #a86b39)" d="M24.046 23.062l-2.183-2.495-0.898 0.912 2.458 2.23c0.075-0.127 0.162-0.253 0.274-0.367 0.112-0.101 0.225-0.19 0.349-0.279z"></path>
		<path fill="#1a1a1a" style="fill: var(--color1, #1a1a1a)" d="M10.226 18.937c0 0.063 0.025 0.127 0.075 0.177l1.996 2.040c0.1 0.089 0.25 0.089 0.349 0l12.288-11.236c0.037-0.025 0.062-0.076 0.075-0.127l1.073-4.37c0.025-0.076 0-0.177-0.062-0.241s-0.15-0.089-0.237-0.063l-4.304 1.089c-0.050 0.013-0.087 0.038-0.125 0.076l-11.065 12.49c-0.037 0.051-0.062 0.101-0.062 0.165zM12.484 20.622l-1.672-1.697 10.865-12.237 3.817-0.975-0.948 3.889-12.063 11.021z"></path>
		<path fill="#1a1a1a" style="fill: var(--color1, #1a1a1a)" d="M7.918 18.646c0 0.291 0.112 0.57 0.312 0.773l3.767 3.826c0.2 0.215 0.474 0.329 0.773 0.329 0.287 0 0.561-0.114 0.761-0.329l0.599-0.595c0.087-0.101 0.087-0.266 0-0.355l-4.952-5.029c-0.1-0.101-0.262-0.101-0.349 0l-0.599 0.595c-0.2 0.215-0.312 0.481-0.312 0.785zM13.594 22.471l-0.412 0.418c-0.112 0.114-0.262 0.177-0.412 0.177-0.162 0-0.312-0.063-0.424-0.177l-3.767-3.826c-0.212-0.228-0.212-0.621 0-0.849l0.424-0.418 4.591 4.674z"></path>
		<path fill="#1a1a1a" style="fill: var(--color1, #1a1a1a)" d="M6.821 23.458v0.063c0.025 0.089 0.087 0.152 0.162 0.177 0.187 0.063 0.349 0.177 0.499 0.317 0.137 0.139 0.237 0.304 0.299 0.494 0.025 0.076 0.087 0.139 0.175 0.165 0.075 0.025 0.162 0 0.225-0.051l2.907-2.635c0.050-0.051 0.087-0.114 0.087-0.177 0-0.076-0.025-0.139-0.075-0.19l-1.272-1.292c-0.050-0.051-0.112-0.076-0.175-0.076-0.075 0.013-0.137 0.038-0.187 0.089l-2.582 2.952c-0.037 0.051-0.062 0.101-0.062 0.165zM8.106 24.016c-0.075-0.127-0.162-0.253-0.274-0.367-0.112-0.101-0.225-0.19-0.349-0.279l2.183-2.495 0.898 0.912-2.458 2.23z"></path>
		<path fill="#1a1a1a" style="fill: var(--color1, #1a1a1a)" d="M4.8 24.929c0 0.481 0.187 0.925 0.524 1.267 0.686 0.709 1.821 0.709 2.507 0 0.337-0.342 0.524-0.785 0.524-1.267s-0.187-0.937-0.524-1.279c-0.337-0.329-0.786-0.519-1.247-0.519-0.474 0-0.923 0.19-1.26 0.519-0.337 0.342-0.524 0.798-0.524 1.279zM7.856 24.929c0 0.342-0.137 0.671-0.374 0.912-0.499 0.507-1.31 0.507-1.809 0-0.237-0.241-0.374-0.57-0.374-0.912s0.137-0.671 0.374-0.912c0.25-0.253 0.561-0.38 0.911-0.38 0.337 0 0.649 0.127 0.898 0.38 0.237 0.241 0.374 0.57 0.374 0.912zM11.225 19.951c0 0.063 0.025 0.139 0.075 0.177 0.1 0.101 0.25 0.101 0.349 0l7.36-7.461c0.087-0.101 0.087-0.253 0-0.355-0.1-0.101-0.262-0.101-0.362 0l-7.348 7.461c-0.050 0.051-0.075 0.114-0.075 0.177zM19.608 11.451c0 0.063 0.025 0.127 0.075 0.177 0.087 0.101 0.25 0.101 0.349 0l1.21-1.241c0.1-0.089 0.1-0.253 0-0.355-0.087-0.101-0.25-0.101-0.349 0l-1.21 1.241c-0.050 0.038-0.075 0.114-0.075 0.177z"></path>
		<path fill="#dbd9db" style="fill: var(--color2, #dbd9db)" d="M21.242 10.033c-0.087-0.101-0.25-0.101-0.349 0l-1.21 1.241c-0.050 0.038-0.075 0.114-0.075 0.177s0.025 0.127 0.075 0.177c0.087 0.101 0.25 0.101 0.349 0l1.21-1.241c0.1-0.089 0.1-0.253 0-0.355zM10.813 18.926l10.865-12.237 3.817-0.975-0.948 3.889-12.063 11.021-0.661-0.671 7.185-7.284c0.087-0.101 0.087-0.253 0-0.355-0.1-0.101-0.262-0.101-0.362 0l-7.173 7.284-0.661-0.671z"></path>
		<path fill="#fdc73e" style="fill: var(--color3, #fdc73e)" d="M9.004 17.798l1.285 1.317h0.012l0.998 1.013v0.013l0.998 1.013h0.012l1.285 1.317-0.412 0.418c-0.112 0.114-0.262 0.177-0.412 0.177-0.162 0-0.312-0.063-0.424-0.177l-3.767-3.826c-0.212-0.228-0.212-0.621 0-0.849l0.424-0.418zM6.971 23.701c0.112 0.038 0.225 0.089 0.324 0.152 0.062 0.051 0.125 0.101 0.187 0.165 0.087 0.089 0.175 0.203 0.237 0.329 0.025 0.051 0.050 0.114 0.062 0.165v0.013c0.050 0.127 0.075 0.266 0.075 0.405 0 0.342-0.137 0.671-0.374 0.912-0.499 0.507-1.31 0.507-1.809 0-0.237-0.241-0.374-0.57-0.374-0.912s0.137-0.671 0.374-0.912c0.25-0.253 0.561-0.38 0.911-0.38 0.125 0 0.262 0.025 0.387 0.063z"></path>
		<path fill="#a86b39" style="fill: var(--color4, #a86b39)" d="M7.483 23.37l2.183-2.496 0.898 0.912-2.458 2.229c-0.075-0.127-0.162-0.253-0.274-0.367-0.112-0.101-0.225-0.19-0.349-0.279z"></path>
	</symbol>
	<symbol id="star" viewBox="0 0 32 32">
		<path fill="#f7ac16" style="fill: var(--color5, #f7ac16)" d="M31.104 11.603l-9.788-1.422-4.378-8.87c-0.383-0.776-1.493-0.776-1.876 0l-4.378 8.87-9.788 1.422c-0.856 0.124-1.2 1.18-0.58 1.784l7.083 6.904-1.672 9.749c-0.033 0.192-0.012 0.39 0.062 0.571s0.196 0.337 0.354 0.452c0.158 0.115 0.345 0.183 0.539 0.197s0.389-0.027 0.562-0.117l8.755-4.603c9.532 5.011 8.877 4.723 9.242 4.723 0.645 0 1.141-0.581 1.031-1.223l-1.672-9.749 7.083-6.904c0.619-0.604 0.277-1.66-0.58-1.784z"></path>
		<path fill="#f2d422" style="fill: var(--color6, #f2d422)" d="M16 0.729c-0.195 0-0.386 0.055-0.552 0.158s-0.299 0.25-0.386 0.425l-4.377 8.87-9.788 1.422c-0.856 0.124-1.2 1.18-0.58 1.784l7.083 6.904-1.672 9.749c-0.033 0.192-0.012 0.39 0.062 0.571s0.196 0.337 0.354 0.452c0.158 0.115 0.345 0.183 0.539 0.197s0.389-0.027 0.562-0.117l8.755-4.603v-25.813z"></path>
		<path fill="#f7ac16" style="fill: var(--color5, #f7ac16)" d="M0.896 11.605c-0.856 0.124-1.2 1.18-0.58 1.784l7.083 6.904-1.672 9.749c-0.033 0.192-0.012 0.39 0.062 0.571s0.196 0.337 0.354 0.452c0.158 0.115 0.345 0.183 0.539 0.197s0.389-0.027 0.562-0.117l8.755-4.603c9.532 5.011 8.877 4.723 9.242 4.723 0.221 0 0.436-0.070 0.615-0.2l-15.172-20.883-9.788 1.422z"></path>
		<path fill="#f48b19" style="fill: var(--color7, #f48b19)" d="M11.16 19.090c-7.587-7.396-7.261-6.999-7.363-7.383-0.041-0.154-0.050-0.333-0.005-0.522l-2.896 0.421c-0.856 0.124-1.2 1.18-0.58 1.784l7.083 6.904-1.672 9.749c-0.033 0.192-0.012 0.39 0.062 0.571s0.196 0.337 0.354 0.452c0.158 0.115 0.345 0.183 0.539 0.197s0.389-0.027 0.562-0.117l2.574-1.353c-0.131-0.118-0.23-0.267-0.288-0.434s-0.073-0.345-0.043-0.519l1.672-9.749z"></path>
		<path fill="#f2d422" style="fill: var(--color6, #f2d422)" d="M0.316 13.39l7.083 6.904-1.672 9.749c-0.033 0.192-0.012 0.39 0.062 0.571s0.196 0.337 0.354 0.452c0.158 0.115 0.345 0.183 0.539 0.197s0.389-0.027 0.562-0.117l8.755-4.603c9.532 5.011 8.877 4.723 9.242 4.723 0.645 0 1.141-0.581 1.031-1.223l-1.672-9.749-24.549-7.977c-0.122 0.438 0 0.815 0.265 1.072z"></path>
		<path fill="#efb616" style="fill: var(--color8, #efb616)" d="M0.316 13.39l7.083 6.904-1.672 9.749c-0.033 0.192-0.012 0.39 0.062 0.571s0.196 0.337 0.354 0.452c0.158 0.115 0.345 0.183 0.539 0.197s0.389-0.027 0.562-0.117l2.574-1.353c-0.131-0.118-0.23-0.267-0.288-0.434s-0.073-0.345-0.043-0.519l1.672-9.749-4.867-4.745-6.241-2.028c-0.122 0.438 0 0.815 0.265 1.072z"></path>
		<path fill="#f7ac16" style="fill: var(--color5, #f7ac16)" d="M5.727 30.043c-0.033 0.192-0.012 0.39 0.062 0.571s0.196 0.337 0.354 0.452c0.158 0.115 0.345 0.183 0.539 0.197s0.389-0.027 0.562-0.117l8.755-4.603c9.532 5.011 8.877 4.723 9.242 4.723 0.645 0 1.141-0.581 1.031-1.223l-1.672-9.749 7.083-6.904c0.14-0.136 0.239-0.309 0.285-0.498s0.040-0.388-0.021-0.574l-24.549 7.977-1.672 9.749z"></path>
		<path fill="#f48b19" style="fill: var(--color7, #f48b19)" d="M5.727 30.042c-0.033 0.192-0.012 0.39 0.062 0.571s0.196 0.337 0.354 0.452c0.158 0.115 0.345 0.183 0.539 0.197s0.389-0.027 0.562-0.117l2.574-1.353c-0.131-0.118-0.23-0.267-0.288-0.434s-0.073-0.345-0.043-0.519l1.672-9.749-0.014-0.013-3.747 1.218-1.672 9.749z"></path>
		<path fill="#f2d422" style="fill: var(--color6, #f2d422)" d="M7.245 31.145l8.755-4.603c9.532 5.011 8.877 4.723 9.242 4.723 0.645 0 1.141-0.581 1.031-1.223l-1.672-9.749 7.083-6.904c0.619-0.604 0.277-1.66-0.58-1.784l-9.788-1.422-15.172 20.883c0.158 0.115 0.345 0.183 0.54 0.197s0.389-0.027 0.562-0.117z"></path>
		<path fill="#f7ac16" style="fill: var(--color5, #f7ac16)" d="M31.949 12.318l-15.949 5.182-9.857 13.567c0.158 0.115 0.345 0.183 0.539 0.197s0.389-0.027 0.562-0.117l8.755-4.603c9.532 5.011 8.877 4.723 9.242 4.723 0.645 0 1.141-0.581 1.031-1.223l-1.672-9.749 7.083-6.904c0.14-0.136 0.239-0.309 0.285-0.498s0.040-0.388-0.021-0.574z"></path>
		<path fill="#f2d422" style="fill: var(--color6, #f2d422)" d="M24.601 20.292l-8.601-2.795-9.857 13.567c0.158 0.115 0.345 0.183 0.539 0.197s0.389-0.027 0.562-0.117l8.755-4.603c9.532 5.011 8.877 4.723 9.242 4.723 0.645 0 1.141-0.581 1.031-1.223l-1.672-9.749z"></path>
		<path fill="#f7ac16" style="fill: var(--color5, #f7ac16)" d="M6.143 31.064c0.158 0.115 0.345 0.183 0.539 0.197s0.389-0.027 0.562-0.117l8.755-4.603c9.532 5.011 8.877 4.723 9.242 4.723 0.221 0 0.436-0.070 0.615-0.2l-9.857-13.567-9.857 13.567z"></path>
		<path fill="#f2d422" style="fill: var(--color6, #f2d422)" d="M16 17.497v-0l-9.857 13.567c0.158 0.115 0.345 0.183 0.539 0.197s0.389-0.027 0.562-0.117l8.755-4.603v-9.043z"></path>
		<path fill="#efb616" style="fill: var(--color8, #efb616)" d="M10.021 25.727l-3.878 5.337c0.158 0.115 0.345 0.183 0.539 0.197s0.389-0.027 0.562-0.117l2.574-1.353c-0.131-0.118-0.23-0.267-0.288-0.434s-0.073-0.345-0.043-0.519l0.533-3.11z"></path>
	</symbol>
	<symbol id="up" viewBox="0 0 32 32">
		<path fill="#1a1a1a" style="fill: var(--color1, #1a1a1a)" d="M17.56 22.432c-0.048 0.046-0.113 0.073-0.188 0.072l-3.005-0.039c-0.14-0.012-0.251-0.126-0.258-0.266l-0.634-17.536c-0.009-0.047 0.011-0.103 0.040-0.149l2.489-3.995c0.039-0.074 0.133-0.129 0.227-0.127s0.177 0.050 0.223 0.135l2.359 4.073c0.027 0.047 0.036 0.094 0.035 0.15l-1.21 17.515c-0.010 0.065-0.030 0.121-0.078 0.167zM14.628 21.935l2.508 0.041 1.167-17.179-2.085-3.619-2.22 3.55 0.63 17.208z"></path>
		<path fill="#1a1a1a" style="fill: var(--color1, #1a1a1a)" d="M19.482 23.98c-0.219 0.212-0.511 0.329-0.81 0.324l-5.653-0.091c-0.309 0.004-0.597-0.122-0.818-0.35-0.212-0.219-0.329-0.511-0.314-0.82l0.005-0.889c0.012-0.14 0.135-0.26 0.266-0.258l7.431 0.12c0.15 0.002 0.269 0.126 0.258 0.266l-0.005 0.889c-0.014 0.309-0.131 0.588-0.36 0.809zM12.42 22.433l-0.010 0.618c-0.003 0.169 0.060 0.329 0.171 0.443 0.12 0.124 0.278 0.192 0.446 0.194l5.653 0.091c0.328-0.004 0.623-0.29 0.637-0.617l0.001-0.627-6.898-0.102z"></path>
		<path fill="#1a1a1a" style="fill: var(--color1, #1a1a1a)" d="M16.678 28.315l-0.047 0.046c-0.085 0.045-0.179 0.044-0.253 0.005-0.186-0.097-0.391-0.137-0.606-0.15-0.206-0.003-0.403 0.040-0.592 0.131-0.075 0.036-0.169 0.035-0.252-0.013-0.074-0.039-0.12-0.124-0.128-0.208l-0.167-4.131c0.001-0.075 0.021-0.149 0.069-0.195 0.057-0.055 0.123-0.082 0.198-0.081l1.909 0.031c0.075 0.001 0.14 0.030 0.186 0.078 0.046 0.066 0.073 0.132 0.072 0.207l-0.31 4.114c-0.010 0.065-0.030 0.121-0.078 0.167zM15.311 27.74c0.15-0.035 0.31-0.061 0.478-0.058 0.159 0.012 0.308 0.033 0.467 0.064l0.262-3.478-1.348-0.022 0.14 3.494z"></path>
		<path fill="#1a1a1a" style="fill: var(--color1, #1a1a1a)" d="M17.067 30.925c-0.361 0.35-0.832 0.529-1.338 0.521-1.039-0.007-1.877-0.873-1.851-1.912 0.008-0.505 0.203-0.97 0.564-1.32s0.842-0.539 1.347-0.53c0.496 0.017 0.97 0.222 1.311 0.573 0.35 0.361 0.539 0.842 0.54 1.338-0.008 0.505-0.212 0.98-0.574 1.329zM14.811 28.595c-0.257 0.249-0.403 0.593-0.409 0.948-0.012 0.749 0.587 1.367 1.335 1.379 0.356 0.006 0.704-0.129 0.961-0.378s0.403-0.593 0.409-0.948c0.006-0.374-0.129-0.704-0.387-0.971-0.249-0.257-0.574-0.402-0.948-0.409-0.356-0.006-0.704 0.129-0.961 0.378zM16.062 22.409c-0.047 0.046-0.123 0.082-0.188 0.072-0.15-0.003-0.26-0.117-0.258-0.266l0.169-11.035c0.012-0.14 0.126-0.251 0.266-0.258 0.15 0.002 0.269 0.126 0.267 0.276l-0.178 11.025c-0.001 0.075-0.030 0.14-0.078 0.186zM16.256 9.839c-0.047 0.046-0.113 0.073-0.188 0.072-0.14 0.007-0.26-0.117-0.258-0.266l0.039-1.825c-0.007-0.141 0.117-0.26 0.266-0.258 0.14-0.007 0.26 0.117 0.258 0.266l-0.039 1.825c0.008 0.066-0.030 0.14-0.078 0.186z"></path>
		<path fill="#dbd9db" style="fill: var(--color2, #dbd9db)" d="M16.115 7.561c0.141-0.007 0.26 0.117 0.258 0.266l-0.039 1.825c0.008 0.066-0.030 0.14-0.078 0.186s-0.113 0.073-0.188 0.072c-0.141 0.007-0.26-0.117-0.258-0.266l0.039-1.825c-0.007-0.141 0.117-0.26 0.266-0.258zM17.136 21.976l1.167-17.179-2.085-3.619-2.22 3.55 0.63 17.208 0.992 0.016 0.165-10.773c0.012-0.14 0.126-0.251 0.266-0.258 0.15 0.002 0.27 0.126 0.267 0.276l-0.174 10.763 0.992 0.016z"></path>
		<path fill="#fdc73e" style="fill: var(--color3, #fdc73e)" d="M19.317 22.535l-1.938-0.022-0.009-0.010-1.498-0.024-0.009 0.009-1.498-0.024-0.009-0.009-1.938-0.022-0.010 0.618c-0.003 0.169 0.060 0.329 0.171 0.443 0.12 0.124 0.278 0.192 0.446 0.195l5.653 0.091c0.328-0.004 0.623-0.29 0.637-0.617l0.001-0.627zM16.386 28.376c-0.111-0.058-0.232-0.107-0.354-0.137-0.084-0.011-0.168-0.021-0.262-0.023-0.131-0.002-0.281 0.014-0.422 0.059-0.056 0.018-0.122 0.045-0.17 0.072l-0.009 0.009c-0.132 0.054-0.255 0.136-0.36 0.238-0.257 0.249-0.403 0.593-0.409 0.948-0.012 0.749 0.586 1.367 1.335 1.379 0.356 0.006 0.704-0.129 0.961-0.378s0.403-0.593 0.409-0.948c0.006-0.374-0.129-0.704-0.387-0.971-0.092-0.095-0.212-0.181-0.333-0.249z"></path>
		<path fill="#a86b39" style="fill: var(--color4, #a86b39)" d="M16.256 27.747l0.262-3.478-1.348-0.022 0.14 3.494c0.15-0.035 0.31-0.061 0.478-0.058 0.159 0.012 0.308 0.033 0.467 0.064z"></path>
	</symbol>
	<symbol id="google-play" viewBox="0 0 32 32"><path fill="#f9796b" d="M15.757 15.463 5.69 26.01a2.723 2.723 0 0 0 1.603 1.789 2.74 2.74 0 0 0 2.396-.169l11.328-6.451-5.259-5.716z" style="fill:var(--color1, #f9796b)"/><path fill="#ffd820" d="m25.937 13.671-4.898-2.806-5.514 4.839 5.536 5.461 4.861-2.776a2.664 2.664 0 0 0 1.043-3.738 2.657 2.657 0 0 0-1.043-.98h.015z" style="fill:var(--color2, #ffd820)"/><path fill="#6baeff" d="M5.69 5.996a2.594 2.594 0 0 0-.09.69V25.32c.001.233.031.465.09.69l10.412-10.277L5.69 5.996z" style="fill:var(--color3, #6baeff)"/><path fill="#64d883" d="m15.832 16.003 5.206-5.139L9.725 4.383A2.803 2.803 0 0 0 8.322 4a2.731 2.731 0 0 0-2.633 1.988l10.142 10.015z" style="fill:var(--color4, #64d883)"/></symbol>
</defs>
</svg>
